<svg width="85" height="43" viewBox="0 0 85 43" fill="none" xmlns="http://www.w3.org/2000/svg">
<g clip-path="url(#clip0)">
<path d="M41.3623 6.01201L41.919 6.87087C43.2997 5.98999 44.9252 5.7037 46.5286 6.03403C48.1319 6.36436 49.5125 7.31131 50.4033 8.67668C51.294 10.042 51.5835 11.6496 51.2495 13.2352C50.9154 14.8208 49.9579 16.1862 48.5773 17.0671L49.134 17.9259C50.7373 16.8909 51.8507 15.3053 52.2516 13.4555C52.6524 11.6056 52.2961 9.71171 51.2717 8.12613C50.2251 6.54054 48.6218 5.43944 46.7513 5.04304C44.8807 4.64665 42.9656 4.97698 41.3623 6.01201Z" fill="#211915"/>
<path d="M39.9595 3.87585L40.5162 4.73471C42.4758 3.47945 44.7917 3.06103 47.0631 3.54552C49.3345 4.03 51.2941 5.35132 52.5411 7.28926C55.1465 11.2752 53.9886 16.6266 49.958 19.2032L50.537 20.04C55.0352 17.1551 56.349 11.1872 53.4319 6.71669C52.0289 4.55853 49.8466 3.06103 47.2858 2.53251C44.7472 2.00398 42.1418 2.46644 39.9595 3.87585Z" fill="#211915"/>
<path d="M38.6902 1.91591L39.2469 2.77477C44.3686 -0.506507 51.2273 0.946946 54.5453 6.01201C57.8633 11.0771 56.3936 17.8599 51.2718 21.1411L51.8285 22C57.4179 18.4104 59.0435 10.989 55.4138 5.46146C51.784 -0.0880892 44.2796 -1.67367 38.6902 1.91591Z" fill="#211915"/>
<path d="M49.223 11.936C49.223 14.1602 47.397 15.966 45.1479 15.966C42.8988 15.966 41.0728 14.1602 41.0728 11.936C41.0728 9.71175 42.8988 8.12616 45.1479 8.12616C47.397 8.12616 49.223 9.71175 49.223 11.936Z" fill="#D17900"/>
<path d="M13.9944 15.0851C13.1037 15.6357 11.968 15.988 10.5205 15.988C7.93739 15.988 6.08911 14.5566 6.08911 11.98C6.08911 9.05106 8.38276 7.97198 10.5428 7.97198C12.1016 7.97198 13.1482 8.54456 13.9721 9.53555L13.1705 9.73375C12.5247 8.87489 11.8344 8.45647 10.6096 8.45647C9.00627 8.45647 6.93531 9.40342 6.93531 12.002C6.93531 14.2923 8.53864 15.5476 10.6319 15.5476C11.5894 15.5476 12.5692 15.3053 13.2373 14.9309V12.7948H10.81V12.3103H13.9944V15.0851Z" fill="#211915" stroke="black" stroke-width="0.25"/>
<path d="M23.169 15.8339H22.1224L19.1384 12.5526H17.112V15.8339H16.3103V8.10413H18.9602C21.2539 8.10413 22.6345 8.72074 22.6345 10.2843C22.6345 11.6497 21.4766 12.3544 19.9846 12.4865L23.169 15.8339ZM19.3165 12.0681C20.8976 12.0681 21.8106 11.3634 21.8106 10.3063C21.8106 9.27129 21.1648 8.58861 18.8712 8.58861H17.0897V12.0681H19.3165Z" fill="#211915" stroke="black" stroke-width="0.25"/>
<path d="M31.1188 12.9049C31.1188 15.2172 30.139 15.988 27.8454 15.988C25.6185 15.988 24.6165 15.2393 24.6165 12.9049V8.10413H25.3958V12.949C25.3958 14.6887 25.908 15.5255 27.8454 15.5255C29.8273 15.5255 30.3172 14.7107 30.3172 12.949V8.10413H31.0966V12.9049H31.1188Z" fill="#211915" stroke="black" stroke-width="0.25"/>
<path d="M33.5237 15.8339V8.10413H35.9732C38.5118 8.10413 39.4694 8.94096 39.4694 10.3504C39.4694 11.958 38.3114 12.6407 35.7951 12.6407H34.3253V15.8339H33.5237ZM35.7728 12.1562C37.8438 12.1562 38.6677 11.5836 38.6677 10.3504C38.6677 9.24927 37.9106 8.58861 35.9732 8.58861H34.3253V12.1562H35.7728Z" fill="#211915" stroke="black" stroke-width="0.25"/>
<path d="M60.5798 12.5526V15.8779H59.3105V8.06006H61.916C62.7622 8.06006 63.3857 8.12612 63.7865 8.25826C64.1873 8.39039 64.4991 8.61061 64.7218 8.8969C64.9445 9.18318 65.0558 9.49149 65.0558 9.7998C65.0558 10.1081 64.989 10.4164 64.8331 10.7247C64.6772 11.033 64.4768 11.2973 64.2319 11.5395C63.9646 11.7818 63.6084 12.002 63.1184 12.2222L65.9243 15.8779H64.41L61.8491 12.5526H60.5798ZM60.5798 11.7598H62.3613C62.7622 11.5836 63.0516 11.4074 63.2521 11.2312C63.4525 11.0551 63.5861 10.8569 63.6974 10.6587C63.7865 10.4605 63.8533 10.2402 63.8533 10.042C63.8533 9.66767 63.6974 9.38138 63.3634 9.16116C63.0294 8.94094 62.4281 8.83083 61.5597 8.83083H60.6021V11.7598H60.5798Z" fill="#211915" stroke="black" stroke-width="0.25"/>
<path d="M68.4629 13.037V15.8779H67.1936V8.06006H69.5986C70.5784 8.06006 71.3133 8.14815 71.7586 8.32432C72.204 8.5005 72.5603 8.76476 72.8052 9.11712C73.0502 9.46947 73.1615 9.84384 73.1615 10.2843C73.1615 10.7908 73.0057 11.2533 72.6716 11.6937C72.3376 12.1341 71.8922 12.4645 71.3133 12.7067C70.7343 12.9489 69.9549 13.0591 68.9528 13.0591H68.4629V13.037ZM68.4629 12.2442H68.9973C69.7767 12.2442 70.3557 12.1562 70.7343 12.002C71.1129 11.8478 71.4023 11.6056 71.6028 11.2973C71.8032 10.989 71.9145 10.6587 71.9145 10.3063C71.9145 9.86586 71.7364 9.49149 71.3801 9.22723C71.0238 8.96296 70.3112 8.83083 69.22 8.83083H68.4629V12.2442Z" fill="#211915" stroke="black" stroke-width="0.25"/>
<path d="M76.1455 13.037V15.8779H74.8762V8.06006H77.2812C78.2833 8.06006 78.9959 8.14815 79.4412 8.32432C79.8866 8.5005 80.2429 8.76476 80.4879 9.11712C80.7328 9.46947 80.8442 9.84384 80.8442 10.2843C80.8442 10.7908 80.6883 11.2533 80.3543 11.6937C80.0202 12.1341 79.5749 12.4645 78.9959 12.7067C78.4169 12.9489 77.6375 13.0591 76.6354 13.0591H76.1455V13.037ZM76.1455 12.2442H76.68C77.4594 12.2442 78.0383 12.1562 78.4169 12.002C78.7955 11.8478 79.085 11.6056 79.2854 11.2973C79.4858 10.989 79.5971 10.6587 79.5971 10.3063C79.5971 9.86586 79.419 9.49149 79.0627 9.22723C78.7064 8.96296 77.9938 8.83083 76.9249 8.83083H76.1455V12.2442Z" fill="#211915" stroke="black" stroke-width="0.25"/>
<path d="M40.7166 11.98C40.7166 14.3804 42.6984 16.3183 45.1034 16.3183C47.5307 16.3183 49.4903 14.3584 49.4903 11.98C49.4903 9.5796 47.5084 7.64166 45.1034 7.64166C42.6984 7.64166 40.7166 9.5796 40.7166 11.98ZM41.7186 11.98C41.7186 10.1302 43.2552 8.61063 45.1257 8.61063C46.9962 8.61063 48.5328 10.1302 48.5328 11.98C48.5328 13.8299 46.9962 15.3494 45.1257 15.3494C43.2329 15.3494 41.7186 13.8519 41.7186 11.98Z" fill="#211915"/>
</g>
<path d="M3.94238 40.1289C5.65576 40.1289 6.80518 39.2749 7.15967 37.7441H6.18213C5.90283 38.6895 5.08643 39.2373 3.94775 39.2373C2.41699 39.2373 1.44482 38.0234 1.44482 36.1221C1.44482 34.2368 2.42773 33.0122 3.94238 33.0122C5.04883 33.0122 5.93506 33.6782 6.18213 34.6934H7.15967C6.9126 33.1465 5.62891 32.1206 3.94238 32.1206C1.8208 32.1206 0.451172 33.689 0.451172 36.1221C0.451172 38.5767 1.80469 40.1289 3.94238 40.1289ZM10.4736 40.0967C12.0151 40.0967 13.0571 38.9849 13.0571 37.207C13.0571 35.4238 12.0151 34.3174 10.4736 34.3174C8.92676 34.3174 7.88477 35.4238 7.88477 37.207C7.88477 38.9849 8.92676 40.0967 10.4736 40.0967ZM10.4736 39.2749C9.48535 39.2749 8.83545 38.5229 8.83545 37.207C8.83545 35.8911 9.48535 35.1392 10.4736 35.1392C11.4619 35.1392 12.1064 35.8911 12.1064 37.207C12.1064 38.5229 11.4619 39.2749 10.4736 39.2749ZM16.7148 34.3174C15.9038 34.3174 15.2539 34.731 14.9102 35.3594H14.8887V34.4141H14.0024V41.8638H14.937V39.0923H14.9585C15.2915 39.7046 15.936 40.0967 16.7363 40.0967C18.1436 40.0967 19.105 38.958 19.105 37.207C19.105 35.4561 18.1382 34.3174 16.7148 34.3174ZM16.5322 39.2749C15.5762 39.2749 14.9316 38.4531 14.9316 37.207C14.9316 35.9663 15.5762 35.1392 16.5322 35.1392C17.5259 35.1392 18.1489 35.9448 18.1489 37.207C18.1489 38.4746 17.5259 39.2749 16.5322 39.2749ZM20.3564 42.0894C21.3662 42.0894 21.8281 41.6973 22.3062 40.3921L24.5029 34.4141H23.52L21.9731 39.0654H21.957L20.4102 34.4141H19.4111L21.4736 40.0054L21.3447 40.3975C21.1299 41.0474 20.8398 41.2998 20.3188 41.2998C20.2007 41.2998 20.0557 41.2944 19.9536 41.2729V42.0571C20.0557 42.0786 20.2437 42.0894 20.3564 42.0894ZM25.2388 40H26.1733V36.5195C26.1733 35.73 26.646 35.209 27.3711 35.209C27.5967 35.209 27.7954 35.2358 27.8706 35.2627V34.355C27.7954 34.3442 27.6558 34.3174 27.4946 34.3174C26.8394 34.3174 26.3237 34.7095 26.1411 35.3271H26.1196V34.4141H25.2388V40ZM28.6816 40H29.6162V34.4141H28.6816V40ZM29.1489 33.4204C29.4766 33.4204 29.7344 33.1572 29.7344 32.835C29.7344 32.5073 29.4766 32.2495 29.1489 32.2495C28.8267 32.2495 28.5635 32.5073 28.5635 32.835C28.5635 33.1572 28.8267 33.4204 29.1489 33.4204ZM33.1504 39.2212C32.189 39.2212 31.5605 38.437 31.5605 37.1855C31.5605 35.9341 32.189 35.1392 33.1504 35.1392C34.1226 35.1392 34.7725 35.9556 34.7725 37.1855C34.7725 38.4155 34.1226 39.2212 33.1504 39.2212ZM33.1826 42.1055C34.7241 42.1055 35.707 41.2192 35.707 39.8872V34.4141H34.8154V35.354H34.7993C34.4287 34.7041 33.7734 34.3174 32.9839 34.3174C31.5391 34.3174 30.6045 35.4346 30.6045 37.1855C30.6045 38.9204 31.5391 40.043 32.9624 40.043C33.7466 40.043 34.4072 39.6455 34.751 39.0386H34.7725V39.9194C34.7725 40.752 34.187 41.3105 33.2202 41.3105C32.522 41.3105 31.9688 40.9722 31.7861 40.4619H30.8247C30.9805 41.4126 31.9526 42.1055 33.1826 42.1055ZM36.9746 40H37.9092V36.7451C37.9092 35.7783 38.4839 35.1445 39.4131 35.1445C40.2886 35.1445 40.7344 35.6763 40.7344 36.5625V40H41.6689V36.3906C41.6689 35.1445 40.9277 34.3174 39.7031 34.3174C38.8545 34.3174 38.2422 34.6826 37.9307 35.3057H37.9092V32.2495H36.9746V40ZM43.1567 33.0659V34.4141H42.3242V35.1821H43.1567V38.5498C43.1567 39.624 43.5542 40.043 44.5801 40.043C44.8003 40.043 45.0581 40.0269 45.1709 40V39.2158C45.1064 39.2266 44.8916 39.2427 44.7842 39.2427C44.3062 39.2427 44.0913 39.0117 44.0913 38.5015V35.1821H45.1763V34.4141H44.0913V33.0659H43.1567ZM52.4058 40.9023C54.8066 40.9023 56.665 39.0654 56.665 36.6377C56.665 34.1992 54.8066 32.373 52.4058 32.373C50.0156 32.373 48.1465 34.1992 48.1465 36.6377C48.1465 39.0654 50.0156 40.9023 52.4058 40.9023ZM52.4058 40.1504C50.4453 40.1504 48.9038 38.6465 48.9038 36.6377C48.9038 34.6182 50.4453 33.125 52.4058 33.125C54.377 33.125 55.9077 34.6182 55.9077 36.6377C55.9077 38.6465 54.377 40.1504 52.4058 40.1504ZM54.436 35.875C54.3071 35.0479 53.6089 34.3711 52.4971 34.3711C51.208 34.3711 50.3755 35.2466 50.3755 36.627C50.3755 38.0342 51.2134 38.9043 52.5024 38.9043C53.6035 38.9043 54.3071 38.2812 54.436 37.4272H53.6895C53.5552 37.9536 53.1094 38.2383 52.4971 38.2383C51.6807 38.2383 51.1382 37.6313 51.1382 36.627C51.1382 35.6387 51.6753 35.0371 52.4971 35.0371C53.1523 35.0371 53.5713 35.4131 53.6895 35.875H54.436ZM59.8232 34.4893H60.7578C60.7578 33.6191 61.4775 32.9639 62.4336 32.9639C63.3198 32.9639 63.8892 33.5708 63.8892 34.3335C63.8892 34.978 63.6475 35.397 62.6001 36.4873L59.8716 39.334V40H64.9849V39.1406H61.1982V39.1191L63.0405 37.2285C64.4639 35.7676 64.856 35.1284 64.856 34.2744C64.856 33.0981 63.8677 32.1206 62.4336 32.1206C60.9404 32.1206 59.8232 33.1304 59.8232 34.4893ZM68.8145 40.1289C70.6191 40.1289 71.6611 38.5659 71.6611 36.1167C71.6611 33.6836 70.6138 32.1206 68.8145 32.1206C67.0151 32.1206 65.957 33.6943 65.957 36.1221C65.957 38.5713 67.0044 40.1289 68.8145 40.1289ZM68.8145 39.2856C67.6006 39.2856 66.9292 38.0503 66.9292 36.1167C66.9292 34.2261 67.6167 32.9692 68.8145 32.9692C70.0122 32.9692 70.689 34.2153 70.689 36.1221C70.689 38.0557 70.0229 39.2856 68.8145 39.2856ZM72.6172 34.4893H73.5518C73.5518 33.6191 74.2715 32.9639 75.2275 32.9639C76.1138 32.9639 76.6831 33.5708 76.6831 34.3335C76.6831 34.978 76.4414 35.397 75.394 36.4873L72.6655 39.334V40H77.7788V39.1406H73.9922V39.1191L75.8345 37.2285C77.2578 35.7676 77.6499 35.1284 77.6499 34.2744C77.6499 33.0981 76.6616 32.1206 75.2275 32.1206C73.7344 32.1206 72.6172 33.1304 72.6172 34.4893ZM81.6084 40.1289C83.4131 40.1289 84.4551 38.5659 84.4551 36.1167C84.4551 33.6836 83.4077 32.1206 81.6084 32.1206C79.8091 32.1206 78.751 33.6943 78.751 36.1221C78.751 38.5713 79.7983 40.1289 81.6084 40.1289ZM81.6084 39.2856C80.3945 39.2856 79.7231 38.0503 79.7231 36.1167C79.7231 34.2261 80.4106 32.9692 81.6084 32.9692C82.8062 32.9692 83.4829 34.2153 83.4829 36.1221C83.4829 38.0557 82.8169 39.2856 81.6084 39.2856Z" fill="#606875"/>
<defs>
<clipPath id="clip0">
<rect width="75" height="22" fill="white" transform="translate(6)"/>
</clipPath>
</defs>
</svg>
